<svg width="78" height="78" viewBox="0 0 78 78" fill="none" xmlns="http://www.w3.org/2000/svg">
<path fill-rule="evenodd" clip-rule="evenodd" d="M38.9997 68.64C57.9541 68.64 73.3197 53.2744 73.3197 34.32C73.3197 15.3656 57.9541 0 38.9997 0C20.0453 0 4.67969 15.3656 4.67969 34.32C4.67969 44.9926 9.55126 54.5274 17.192 60.822C17.2042 60.832 17.1934 60.8515 17.1784 60.8464V60.8464C17.1693 60.8433 17.1597 60.8501 17.1597 60.8598V71.5042C17.1597 74.4834 20.2999 76.4171 22.9603 75.076L34.9717 69.0212C35.6351 68.6867 36.3783 68.5494 37.1202 68.5894C37.7425 68.623 38.3691 68.64 38.9997 68.64Z" fill="#7DED61"/>
<path fill-rule="evenodd" clip-rule="evenodd" d="M50.3007 24.3463C51.3598 25.1583 51.562 26.6744 50.7526 27.7356L38.7423 43.4828C38.3188 44.0381 37.6769 44.3831 36.9812 44.4294C36.2856 44.4757 35.6039 44.2188 35.1109 43.7245L27.4879 36.0814C26.5452 35.1362 26.5452 33.6063 27.4879 32.661C28.4342 31.7123 29.971 31.7123 30.9172 32.661L36.5779 38.3366L46.9028 24.7993C47.7151 23.7343 49.2378 23.5313 50.3007 24.3463Z" fill="white"/>
<path d="M48.8137 27.6379C49.6421 26.8095 49.6421 25.4664 48.8137 24.638L48.3622 24.1865C47.5338 23.3581 46.1907 23.3581 45.3623 24.1865L39.0002 30.5486L32.6381 24.1865C31.8097 23.3581 30.4666 23.3581 29.6382 24.1865L29.1867 24.638C28.3583 25.4664 28.3583 26.8095 29.1867 27.6379L35.5488 34L29.1867 40.362C28.3583 41.1904 28.3583 42.5336 29.1867 43.362L29.6382 43.8134C30.4666 44.6419 31.8097 44.6419 32.6381 43.8134L39.0002 37.4514L45.3623 43.8134C46.1907 44.6418 47.5338 44.6419 48.3622 43.8134L48.8137 43.362C49.6421 42.5336 49.6421 41.1904 48.8137 40.362L42.4516 34L48.8137 27.6379Z" fill="white"/>
</svg>
