<svg width="16" height="18" viewBox="0 0 16 18" fill="none" xmlns="http://www.w3.org/2000/svg">
<path opacity="0.4" d="M14.3694 6.90705C14.3694 6.96371 13.9253 12.581 13.6716 14.9451C13.5127 16.3959 12.5775 17.2759 11.1746 17.3009C10.0966 17.325 9.04143 17.3333 8.00323 17.3333C6.901 17.3333 5.82309 17.325 4.77678 17.3009C3.42088 17.2684 2.4848 16.3709 2.33406 14.9451C2.07309 12.5727 1.63706 6.96371 1.62895 6.90705C1.62085 6.73622 1.67596 6.57373 1.78781 6.44206C1.89803 6.3204 2.05688 6.24707 2.22383 6.24707H13.7826C13.9488 6.24707 14.0995 6.3204 14.2186 6.44206C14.3297 6.57373 14.3856 6.73622 14.3694 6.90705Z" fill="#EB5757"/>
<path d="M15.5 3.98068C15.5 3.63819 15.2301 3.36986 14.9059 3.36986H12.4762C11.9818 3.36986 11.5522 3.01821 11.442 2.52239L11.3059 1.91492C11.1154 1.18077 10.4581 0.666626 9.72061 0.666626H6.2802C5.53458 0.666626 4.88378 1.18077 4.68603 1.95491L4.55879 2.52323C4.44775 3.01821 4.01821 3.36986 3.52464 3.36986H1.09488C0.769883 3.36986 0.5 3.63819 0.5 3.98068V4.29733C0.5 4.63149 0.769883 4.90814 1.09488 4.90814H14.9059C15.2301 4.90814 15.5 4.63149 15.5 4.29733V3.98068Z" fill="#EB5757"/>
</svg>
